<?xml version="1.0" standalone="no"?>
<!DOCTYPE svg PUBLIC "-//W3C//DTD SVG 20010904//EN"
 "http://www.w3.org/TR/2001/REC-SVG-20010904/DTD/svg10.dtd">
<svg version="1.0" xmlns="http://www.w3.org/2000/svg"
 width="320.000000pt" height="158.000000pt" viewBox="0 0 320.000000 158.000000"
 preserveAspectRatio="xMidYMid meet">

<g transform="translate(0.000000,158.000000) scale(0.100000,-0.100000)"
fill="#000000" stroke="none">
<path d="M710 849 c0 -561 0 -561 22 -601 12 -21 38 -49 58 -61 l35 -22 740
-3 c511 -2 756 0 791 8 51 11 97 47 123 97 7 14 11 111 11 287 l0 265 -127 3
-128 3 -3 293 -2 292 -760 0 -760 0 0 -561z m1500 -59 l0 -600 -685 0 c-755 0
-720 -3 -767 62 l-23 33 -3 553 -3 552 741 0 740 0 0 -600z m260 -238 c0 -227
-1 -240 -22 -282 -30 -57 -74 -80 -155 -80 l-63 0 0 293 c0 162 3 297 7 300 3
4 57 7 120 7 l113 0 0 -238z"/>
<path d="M927 1223 c-4 -3 -7 -12 -7 -20 0 -10 59 -13 316 -13 295 0 315 1
312 18 -3 16 -27 17 -309 20 -168 1 -308 -1 -312 -5z"/>
<path d="M1695 1217 c-3 -7 -4 -80 -3 -162 l3 -150 155 0 155 0 0 160 0 160
-153 3 c-119 2 -154 0 -157 -11z m295 -152 l0 -135 -135 0 -135 0 0 135 0 135
135 0 135 0 0 -135z"/>
<path d="M920 1065 c0 -13 42 -15 315 -15 273 0 315 2 315 15 0 13 -42 15
-315 15 -273 0 -315 -2 -315 -15z"/>
<path d="M923 918 c3 -10 74 -13 312 -13 238 0 309 3 313 13 3 9 -64 12 -313
12 -249 0 -316 -3 -312 -12z"/>
<path d="M927 793 c-4 -3 -7 -12 -7 -20 0 -11 95 -13 548 -11 478 3 547 5 547
18 0 13 -68 15 -541 18 -297 1 -544 -1 -547 -5z"/>
<path d="M920 625 c0 -13 65 -15 547 -13 426 2 547 6 551 16 3 9 -111 12 -547
12 -485 0 -551 -2 -551 -15z"/>
<path d="M920 490 c0 -7 190 -10 550 -10 360 0 550 3 550 10 0 7 -190 10 -550
10 -360 0 -550 -3 -550 -10z"/>
<path d="M922 353 c3 -17 36 -18 548 -18 478 0 545 2 545 15 0 13 -69 15 -548
18 -519 2 -548 1 -545 -15z"/>
</g>
</svg>
