<?xml version="1.0" standalone="no"?>
<!DOCTYPE svg PUBLIC "-//W3C//DTD SVG 20010904//EN"
 "http://www.w3.org/TR/2001/REC-SVG-20010904/DTD/svg10.dtd">
<svg version="1.0" xmlns="http://www.w3.org/2000/svg"
 width="224.000000pt" height="225.000000pt" viewBox="0 0 224.000000 225.000000"
 preserveAspectRatio="xMidYMid meet">

<g transform="translate(0.000000,225.000000) scale(0.100000,-0.100000)"
fill="#000000" stroke="none">
<path d="M850 2240 c-397 -54 -725 -327 -821 -685 -17 -64 -22 -108 -22 -220
0 -124 3 -151 27 -230 49 -162 136 -299 267 -418 l71 -65 0 -67 c-1 -114 -75
-237 -191 -316 -42 -28 -51 -39 -51 -64 l0 -31 96 8 c106 9 228 35 317 68 73
28 188 104 249 167 l47 48 88 -6 c48 -3 90 -4 92 -3 1 2 -4 24 -13 51 -41 127
-45 299 -11 428 66 242 270 443 514 506 139 36 344 19 451 -36 l32 -17 -7 64
c-42 393 -347 714 -765 804 -83 18 -286 26 -370 14z"/>
<path d="M1527 1245 c-135 -37 -284 -160 -345 -285 -104 -211 -70 -463 84
-629 118 -128 243 -184 409 -183 55 0 114 5 130 10 27 8 35 5 83 -39 28 -26
76 -59 105 -73 97 -48 247 -57 247 -15 0 11 -4 19 -8 19 -13 0 -72 62 -88 92
-8 16 -19 53 -25 82 -12 68 1 129 42 196 95 154 101 369 17 540 -63 128 -224
258 -358 289 -62 14 -235 12 -293 -4z"/>
</g>
</svg>
