<?xml version="1.0" standalone="no"?>
<!DOCTYPE svg PUBLIC "-//W3C//DTD SVG 20010904//EN"
 "http://www.w3.org/TR/2001/REC-SVG-20010904/DTD/svg10.dtd">
<svg version="1.0" xmlns="http://www.w3.org/2000/svg"
 width="176.000000pt" height="148.000000pt" viewBox="0 0 176.000000 148.000000"
 preserveAspectRatio="xMidYMid meet">

<g transform="translate(0.000000,148.000000) scale(0.100000,-0.100000)"
fill="#000000" stroke="none">
<path d="M503 820 c-92 -56 -80 -187 22 -225 54 -21 102 -9 140 36 34 41 41
75 24 123 -27 77 -117 109 -186 66z"/>
<path d="M851 823 c-48 -24 -78 -92 -62 -144 32 -106 175 -129 231 -37 70 114
-48 240 -169 181z"/>
<path d="M1183 820 c-89 -54 -81 -180 15 -222 55 -25 102 -14 145 30 100 105
-36 268 -160 192z"/>
</g>
</svg>
