<?xml version="1.0" standalone="no"?>
<!DOCTYPE svg PUBLIC "-//W3C//DTD SVG 20010904//EN"
 "http://www.w3.org/TR/2001/REC-SVG-20010904/DTD/svg10.dtd">
<svg version="1.0" xmlns="http://www.w3.org/2000/svg"
 width="1300.000000pt" height="1300.000000pt" viewBox="0 0 1300.000000 1300.000000"
 preserveAspectRatio="xMidYMid meet">

<g transform="translate(0.000000,1300.000000) scale(0.100000,-0.100000)"
fill="#000000" stroke="none">
<path d="M4436 10019 c-63 -15 -152 -68 -205 -120 -48 -49 -111 -152 -111
-183 0 -13 -13 -16 -72 -16 -134 0 -218 -43 -263 -134 l-25 -50 0 -1122 0
-1121 -42 -29 c-24 -16 -66 -47 -95 -69 -28 -22 -78 -58 -110 -81 -161 -113
-532 -385 -540 -396 -11 -14 -76 -204 -78 -228 0 -9 -4 -20 -8 -27 -4 -6 -70
-205 -147 -442 l-140 -431 76 -233 c74 -227 144 -445 239 -737 26 -80 52 -151
57 -158 6 -6 83 -64 172 -129 88 -64 188 -136 221 -160 33 -25 152 -111 265
-193 113 -82 225 -164 249 -182 l45 -33 599 3 600 3 306 223 c168 122 372 271
454 329 l147 107 2097 0 2097 0 43 21 c55 26 107 88 122 142 9 31 11 670 9
2502 -3 2320 -4 2462 -20 2492 -24 43 -55 74 -103 103 -36 23 -53 25 -182 29
-119 3 -143 6 -143 18 0 30 -62 131 -111 180 -88 88 -195 133 -321 133 -125 0
-240 -51 -325 -144 -44 -48 -103 -149 -103 -176 0 -6 -32 -10 -73 -10 l-73 0
-27 63 c-33 75 -109 164 -170 200 -87 51 -163 70 -265 64 -81 -4 -102 -9 -166
-40 -40 -20 -95 -58 -122 -85 -49 -48 -114 -154 -114 -186 0 -12 -10 -16 -40
-16 -35 0 -42 4 -51 28 -45 120 -123 206 -236 260 -64 30 -87 36 -166 40 -77
3 -103 1 -157 -18 -129 -43 -226 -129 -277 -247 l-27 -63 -81 0 -81 0 -27 63
c-51 118 -148 204 -277 247 -54 19 -80 21 -157 18 -79 -4 -102 -10 -166 -40
-111 -53 -191 -141 -236 -260 -10 -27 -14 -28 -78 -28 l-68 0 -34 72 c-45 96
-117 167 -218 215 -148 71 -321 54 -454 -43 -66 -49 -108 -102 -147 -186 l-26
-58 -48 0 c-26 0 -48 4 -48 10 0 28 -61 130 -108 182 -40 42 -75 69 -130 95
-68 33 -85 37 -171 39 -53 2 -113 -1 -135 -7z m1934 -73 c0 -2 -8 -10 -17 -17
-16 -13 -17 -12 -4 4 13 16 21 21 21 13z m-80 -80 c0 -2 -8 -10 -17 -17 -16
-13 -17 -12 -4 4 13 16 21 21 21 13z m-1679 -77 c39 -12 109 -63 109 -80 0 -5
-75 -9 -177 -9 l-178 1 44 39 c62 57 124 72 202 49z m999 -16 c29 -16 59 -38
68 -50 l14 -23 -176 0 c-104 0 -176 4 -176 9 0 14 58 57 100 75 54 24 111 20
170 -11z m1000 6 c45 -20 90 -56 90 -71 0 -4 -80 -8 -177 -8 l-178 0 36 36
c63 63 149 79 229 43z m1046 -2 c16 -8 43 -28 59 -43 l30 -29 -174 -3 c-96 -1
-176 0 -179 3 -10 10 34 48 83 72 56 27 129 27 181 0z m934 2 c45 -20 90 -56
90 -71 0 -4 -79 -8 -175 -8 -192 0 -200 3 -125 55 70 49 138 57 210 24z m994
10 c21 -6 57 -28 80 -50 l41 -38 -177 -1 c-103 0 -178 4 -178 9 0 5 17 24 38
41 57 47 120 60 196 39z m-3374 -3 c0 -2 -8 -10 -17 -17 -16 -13 -17 -12 -4 4
13 16 21 21 21 13z m-160 -160 c0 -2 -8 -10 -17 -17 -16 -13 -17 -12 -4 4 13
16 21 21 21 13z m-80 -80 c0 -2 -8 -10 -17 -17 -16 -13 -17 -12 -4 4 13 16 21
21 21 13z m-1827 -156 c128 -265 467 -340 695 -153 51 41 117 138 134 195 11
37 12 38 58 38 47 0 47 0 65 -47 75 -199 272 -315 480 -284 110 16 176 49 254
128 49 50 75 86 96 136 l29 67 66 0 65 0 38 -80 c125 -259 442 -337 675 -166
64 47 134 142 154 207 l11 40 85 -3 c81 -3 85 -4 89 -27 5 -38 52 -117 97
-163 141 -147 343 -186 523 -102 84 40 181 141 218 227 28 63 31 67 63 67 22
0 34 -5 38 -17 34 -109 137 -230 235 -276 111 -52 243 -58 351 -17 120 45 226
149 265 261 l18 49 67 0 68 0 30 -66 c37 -83 115 -178 141 -171 11 3 16 0 13
-8 -8 -20 111 -74 189 -87 214 -35 430 100 501 315 5 16 17 17 108 15 l103 -3
0 -405 0 -405 -3087 -3 -3088 -2 0 403 c0 222 3 407 7 410 3 4 29 7 57 7 l51
0 38 -80z m577 66 c0 -15 -45 -53 -89 -76 -35 -18 -132 -15 -172 5 -37 19 -89
64 -89 77 0 4 79 8 175 8 146 0 175 -2 175 -14z m970 6 c0 -13 -52 -58 -87
-76 -44 -22 -135 -21 -181 3 -41 22 -82 57 -82 71 0 6 70 10 175 10 96 0 175
-4 175 -8z m1010 -2 c0 -16 -52 -62 -86 -76 -45 -19 -138 -18 -177 2 -35 18
-87 63 -87 76 0 4 79 8 175 8 104 0 175 -4 175 -10z m1040 2 c0 -13 -52 -58
-89 -77 -49 -25 -129 -22 -186 6 -43 22 -75 52 -75 71 0 5 79 8 175 8 96 0
175 -4 175 -8z m940 -6 c0 -17 -71 -69 -109 -81 -40 -12 -119 -7 -154 11 -34
17 -87 63 -87 75 0 4 79 8 175 9 148 0 175 -2 175 -14z m1020 6 c0 -13 -52
-58 -89 -77 -55 -28 -158 -18 -213 21 -24 16 -44 38 -46 47 -3 15 12 17 172
17 97 0 176 -4 176 -8z m-3890 -76 c0 -2 -8 -10 -17 -17 -16 -13 -17 -12 -4 4
13 16 21 21 21 13z m-80 -80 c0 -2 -8 -10 -17 -17 -16 -13 -17 -12 -4 4 13 16
21 21 21 13z m4438 -1083 l2 -193 -3090 0 -3090 0 0 195 0 195 3088 -2 3087
-3 3 -192z m2 -2003 l0 -1580 -2015 0 c-1108 0 -2015 2 -2015 5 0 5 54 171
216 669 84 258 85 259 70 300 -8 22 -72 217 -141 431 -70 215 -145 446 -167
515 -23 71 -50 134 -62 146 -11 12 -230 173 -484 358 l-464 336 -559 0 -559 0
0 193 c0 107 3 197 7 200 3 4 1394 7 3090 7 l3083 0 0 -1580z m-5780 715 c0
-138 4 -233 11 -247 18 -39 60 -63 108 -62 38 1 49 7 78 37 l33 37 0 230 0
230 211 0 211 0 246 -180 c223 -164 372 -271 530 -385 l56 -40 86 -265 c131
-400 190 -587 190 -599 0 -8 -69 -11 -224 -11 -255 0 -273 -4 -301 -74 -19
-46 -8 -90 31 -127 25 -24 28 -24 260 -27 129 -2 234 -6 234 -9 0 -3 -45 -146
-101 -317 -56 -171 -117 -362 -137 -424 l-36 -113 -85 -63 c-47 -35 -236 -172
-419 -305 l-332 -241 -210 0 -210 0 0 228 c0 206 -2 230 -19 258 -41 67 -151
67 -191 1 -18 -29 -20 -52 -20 -259 l0 -228 -196 0 -195 0 -292 213 c-161 117
-348 254 -417 303 l-124 90 -57 175 c-130 397 -219 675 -219 682 0 4 69 7 153
7 178 0 210 10 241 74 17 36 18 43 5 79 -26 74 -47 82 -235 85 -90 2 -164 6
-164 10 0 4 36 118 80 253 44 136 80 253 80 261 0 8 3 17 6 21 4 3 30 77 58
164 l52 157 414 303 415 302 198 1 197 0 0 -225z"/>
<path d="M4481 6507 c-19 -7 -44 -25 -55 -40 -19 -26 -21 -45 -26 -243 l-5
-214 -60 -29 c-120 -57 -208 -155 -246 -273 -18 -57 -21 -84 -17 -161 8 -131
47 -217 139 -306 134 -129 349 -158 518 -71 57 29 146 112 178 168 39 67 63
156 63 236 l0 72 183 107 c666 389 650 379 666 420 20 53 3 108 -43 136 -57
35 -87 28 -225 -52 -501 -292 -620 -362 -647 -378 l-30 -18 -45 40 c-24 22
-77 56 -116 76 l-73 36 -1 196 c0 125 -4 208 -12 230 -21 60 -84 89 -146 68z
m135 -740 c51 -27 93 -77 110 -133 24 -74 7 -149 -44 -207 -88 -97 -217 -103
-311 -14 -101 96 -91 247 22 336 52 41 162 50 223 18z"/>
</g>
</svg>
