<?xml version="1.0" standalone="no"?>
<!DOCTYPE svg PUBLIC "-//W3C//DTD SVG 20010904//EN"
 "http://www.w3.org/TR/2001/REC-SVG-20010904/DTD/svg10.dtd">
<svg version="1.0" xmlns="http://www.w3.org/2000/svg"
 width="225.000000pt" height="225.000000pt" viewBox="0 0 225.000000 225.000000"
 preserveAspectRatio="xMidYMid meet">

<g transform="translate(0.000000,225.000000) scale(0.100000,-0.100000)"
fill="#000000" stroke="none">
<path d="M1088 1860 c-14 -9 -16 -23 -11 -98 14 -221 -72 -434 -220 -543 l-39
-28 -30 22 c-29 21 -38 22 -233 21 -224 -2 -244 -7 -264 -66 -7 -20 -11 -156
-11 -375 l0 -345 34 -34 34 -34 210 0 210 0 32 27 32 27 62 -33 61 -32 367 3
c354 3 368 4 395 24 41 30 69 77 83 136 8 32 23 64 40 80 33 34 53 97 44 143
-5 31 -2 40 29 74 19 21 38 53 42 70 6 29 -8 94 -26 117 -5 6 1 28 13 53 29
59 35 126 14 165 -44 81 -164 116 -404 116 l-164 0 6 23 c3 12 9 65 12 117 11
173 -24 288 -105 345 -37 26 -53 30 -119 33 -42 1 -85 -2 -94 -8z m131 -50
c107 -30 156 -169 130 -370 -7 -52 -13 -106 -13 -120 l-1 -25 175 3 c136 3
191 0 244 -12 148 -35 187 -97 131 -208 l-25 -50 20 -33 c36 -58 24 -122 -29
-149 -28 -15 -28 -16 -23 -91 l5 -75 -35 -33 c-26 -24 -38 -46 -43 -78 -4 -24
-16 -61 -27 -82 -33 -67 -43 -68 -431 -65 l-342 3 -57 33 -58 33 0 327 0 327
35 24 c97 66 195 210 231 341 8 30 18 112 21 183 l6 127 26 0 c14 0 42 -4 60
-10z m-451 -642 c9 -9 12 -104 12 -365 0 -338 -1 -353 -19 -363 -12 -6 -96
-10 -205 -10 -173 0 -187 1 -206 20 -19 19 -20 33 -20 353 0 285 2 336 16 355
15 21 20 22 213 22 140 0 200 -3 209 -12z"/>
</g>
</svg>
