<?xml version="1.0" standalone="no"?>
<!DOCTYPE svg PUBLIC "-//W3C//DTD SVG 20010904//EN"
 "http://www.w3.org/TR/2001/REC-SVG-20010904/DTD/svg10.dtd">
<svg version="1.0" xmlns="http://www.w3.org/2000/svg"
 width="286.000000pt" height="176.000000pt" viewBox="0 0 286.000000 176.000000"
 preserveAspectRatio="xMidYMid meet">

<g transform="translate(0.000000,176.000000) scale(0.100000,-0.100000)"
fill="#000000" stroke="none">
<path d="M1057 1533 c-2 -5 -17 -45 -31 -90 -26 -79 -29 -83 -57 -83 -27 0
-29 3 -29 36 0 27 -5 37 -19 41 -15 4 -21 15 -23 47 l-3 41 -90 0 -90 0 -3
-41 c-2 -32 -8 -43 -23 -47 -14 -4 -19 -14 -19 -41 0 -36 0 -36 -43 -36 -83 0
-78 45 -75 -580 l3 -555 855 -3 c470 -1 865 0 878 3 l22 5 0 553 c0 417 -3
556 -12 565 -7 7 -36 12 -64 12 l-53 0 -3 38 -3 37 -130 0 -130 0 -3 -38 c-3
-35 -6 -38 -29 -35 -23 3 -29 12 -49 81 -13 42 -26 82 -29 87 -7 12 -741 14
-748 3z m-197 -68 c0 -24 -3 -25 -55 -25 -52 0 -55 1 -55 25 0 24 3 25 55 25
52 0 55 -1 55 -25z m918 -45 l21 -60 -369 0 -369 0 15 48 c9 26 17 53 20 60 3
9 78 12 333 12 l329 0 20 -60z m-878 -40 c0 -19 -7 -20 -95 -20 -88 0 -95 1
-95 20 0 19 7 20 95 20 88 0 95 -1 95 -20z m1240 0 c0 -19 -7 -20 -95 -20 -88
0 -95 1 -95 20 0 19 7 20 95 20 88 0 95 -1 95 -20z m110 -105 l0 -25 -820 0
-820 0 0 25 0 25 820 0 820 0 0 -25z m0 -482 l0 -423 -277 0 -277 0 50 53 c58
60 79 92 100 150 59 161 24 334 -90 456 -96 102 -187 141 -326 141 -140 0
-230 -39 -328 -144 -114 -121 -147 -290 -88 -454 19 -54 46 -94 105 -154 l45
-48 -277 0 -277 0 0 423 0 422 820 0 820 0 0 -422z m-696 300 c180 -63 288
-244 256 -425 -55 -303 -412 -424 -642 -219 -90 80 -139 224 -118 343 43 236
283 380 504 301z m-280 -778 c19 -8 59 -19 88 -24 35 -6 -81 -9 -349 -10
l-403 -1 0 25 0 25 314 0 c257 0 320 -3 350 -15z m976 -10 l0 -25 -402 1
c-267 1 -385 4 -351 10 29 5 67 15 85 23 26 11 99 15 351 15 l317 1 0 -25z"/>
<path d="M1902 1192 c-9 -6 -12 -36 -10 -113 l3 -104 150 0 150 0 0 110 0 110
-140 2 c-77 2 -146 -1 -153 -5z m258 -107 l0 -75 -115 0 -115 0 0 75 0 75 115
0 115 0 0 -75z"/>
<path d="M1982 1083 l3 -48 53 -3 c66 -4 84 9 80 57 l-3 36 -68 3 -68 3 3 -48z
m98 -3 c0 -5 -13 -10 -30 -10 -16 0 -30 5 -30 10 0 6 14 10 30 10 17 0 30 -4
30 -10z"/>
<path d="M894 570 c-86 -34 -62 -170 29 -170 97 0 129 123 42 164 -37 18 -41
18 -71 6z m66 -50 c23 -23 25 -40 8 -62 -20 -24 -44 -28 -67 -12 -27 20 -27
59 1 78 29 20 34 20 58 -4z"/>
<path d="M1361 1030 c-131 -27 -233 -151 -235 -285 -2 -131 55 -227 168 -285
58 -30 77 -34 137 -34 126 2 243 81 285 195 24 64 22 172 -4 231 -26 59 -93
127 -152 155 -53 26 -138 35 -199 23z m150 -46 c101 -30 189 -148 189 -254 0
-91 -71 -199 -158 -241 -65 -32 -159 -32 -224 0 -87 42 -158 150 -158 241 0
135 130 266 266 269 17 1 55 -6 85 -15z"/>
<path d="M1325 946 c-170 -79 -182 -321 -21 -421 44 -27 58 -30 126 -30 68 0
82 3 126 30 102 64 142 192 94 304 -54 124 -199 176 -325 117z m213 -44 c60
-43 86 -88 90 -157 13 -205 -231 -294 -361 -132 -25 30 -32 49 -35 96 -5 73 9
119 51 159 53 51 85 63 157 60 49 -3 74 -9 98 -26z"/>
</g>
</svg>
