<svg version="1.1" id="Layer_1" xmlns="http://www.w3.org/2000/svg" xmlns:xlink="http://www.w3.org/1999/xlink" x="0px" y="0px"
	 width="100%" viewBox="0 0 346 88" enable-background="new 0 0 346 88" xml:space="preserve">
<path fill="#F5F5F5" opacity="1.000000" stroke="none" 
	d="
M218.000000,89.000000 
	C180.979111,89.000000 143.958206,89.000000 106.403648,88.621201 
	C110.139755,87.562447 114.422096,86.948357 118.667038,86.138275 
	C119.382027,86.001831 120.223320,85.115250 120.464325,84.394150 
	C120.630142,83.897972 119.898582,82.529999 119.502632,82.502731 
	C112.164261,81.997421 113.168373,76.443573 113.107765,71.788956 
	C112.969299,61.154366 113.064011,50.516739 113.064011,39.905586 
	C111.602562,39.762875 110.314903,39.868023 109.199913,39.478683 
	C107.083618,38.739697 104.608467,37.658047 103.548317,40.189636 
	C103.092873,41.277222 105.051437,43.375725 105.227615,43.710827 
	C103.142975,53.305267 104.136612,62.169849 104.358658,71.371567 
	C104.192680,72.838058 104.165993,73.920349 103.942749,75.289658 
	C101.021439,77.097282 98.430138,78.966110 95.546196,80.071335 
	C87.781021,83.047203 82.130577,79.928368 80.493248,71.860054 
	C79.906929,68.970863 79.903000,65.963470 79.709137,62.632957 
	C79.670708,61.498180 79.556404,60.740479 79.600128,59.538551 
	C79.849998,56.465969 80.123779,53.828308 79.990021,51.211479 
	C79.800903,47.511383 79.310776,43.826672 78.846375,39.768238 
	C78.161049,39.020855 77.578667,38.640621 76.660568,38.277039 
	C75.553688,38.645229 74.782524,38.996765 73.699165,39.336128 
	C73.322990,39.897778 73.259026,40.471600 73.142456,41.018955 
	C73.089859,40.992493 73.042503,41.100311 72.733551,41.090797 
	C72.274109,43.057678 72.123619,45.034069 71.872604,47.381950 
	C72.071411,52.236282 72.370750,56.719116 72.337112,61.432442 
	C71.711861,63.116318 71.419579,64.569702 71.010712,66.461098 
	C70.744431,76.201561 71.575752,85.011040 82.000000,89.000000 
	C55.078449,89.000000 28.156900,89.000000 1.000000,89.000000 
	C1.000000,65.979637 1.000000,42.958477 1.341643,19.470345 
	C3.369040,18.233868 6.014112,17.881569 6.563665,16.617935 
	C8.329804,12.556902 11.205641,10.244057 15.343045,9.728004 
	C20.700874,9.059728 26.116177,8.852245 31.792660,8.424851 
	C31.938097,9.855809 32.158367,10.953985 32.144215,12.049129 
	C32.002441,23.016390 31.822117,33.983150 31.499949,45.382095 
	C31.575998,47.560997 31.804756,49.307861 31.936754,51.500252 
	C31.611288,54.019073 31.155331,56.107620 31.292904,58.156315 
	C31.333961,58.767723 33.036987,59.267525 34.316292,59.879749 
	C35.578304,61.167034 36.502575,62.393028 37.210014,63.498623 
	C36.662220,63.369064 36.331799,63.378647 35.790760,63.174629 
	C30.457634,60.863022 31.932352,64.542725 31.808138,67.083961 
	C31.489420,67.263535 31.386606,67.374184 31.283796,67.484833 
	C31.510159,67.676010 31.736519,67.867188 31.961464,68.257767 
	C31.960049,68.457153 31.787609,68.816734 31.489769,69.052917 
	C31.760372,71.814392 32.328815,74.339684 32.569534,76.996109 
	C29.944414,80.358421 27.619221,83.394730 22.929192,83.161743 
	C22.293743,83.130188 21.547598,85.327034 20.498735,87.085510 
	C28.997730,87.085510 36.074905,87.152115 43.149357,87.042610 
	C45.125397,87.012024 47.093384,86.461647 49.359386,86.180328 
	C50.233105,86.659103 50.812504,87.107262 51.391899,87.555420 
	C51.747726,86.189545 52.103554,84.823662 52.498566,83.307388 
	C50.912605,83.218964 49.949230,83.165253 48.749516,82.988228 
	C48.341724,82.911705 48.170277,82.958488 47.777519,82.828049 
	C47.028522,82.510307 46.500828,82.369804 45.582092,82.172966 
	C43.934250,82.014343 42.677444,81.912048 42.201939,81.873344 
	C42.041943,78.637489 41.889542,75.555199 41.736595,72.461838 
	C38.312283,72.841034 35.642887,73.136627 33.304211,73.255386 
	C34.467781,71.771828 35.300625,70.465103 36.403248,69.069931 
	C37.032246,68.623314 37.391460,68.265129 37.881256,67.642532 
	C38.309566,67.149948 38.607300,66.921791 39.201736,66.825241 
	C39.979332,66.637444 40.460236,66.318024 41.193741,65.922379 
	C41.471649,65.273842 41.496948,64.701523 41.387924,63.703976 
	C40.769100,60.850224 40.284595,58.421707 39.909790,55.708466 
	C40.044079,54.606934 40.068676,53.790127 39.976509,52.641983 
	C40.484173,49.881062 41.108593,47.451469 41.744881,44.727890 
	C41.441776,43.951160 41.126808,43.468418 41.011009,42.603996 
	C41.476284,39.151241 41.930225,36.082714 41.971962,33.008595 
	C42.080643,25.003290 42.008518,16.995533 42.008518,9.233866 
	C47.926460,9.233866 53.245552,9.397575 58.549622,9.185547 
	C63.376633,8.992591 64.790596,11.711149 64.987671,15.813022 
	C65.039375,16.889196 65.112114,17.964363 65.269005,20.639677 
	C67.143372,18.804970 68.616768,18.037325 68.936470,16.935066 
	C70.462631,11.673162 71.675629,6.320430 73.000000,0.999999 
	C164.220978,1.000000 255.441956,1.000000 347.000000,1.000000 
	C347.000000,28.019960 347.000000,55.041321 346.604980,82.581612 
	C342.084564,82.424713 339.428894,78.216316 339.604340,73.886406 
	C339.950653,65.339287 339.997284,56.773491 339.861847,48.220264 
	C339.841003,46.902306 338.193237,45.610107 337.063232,44.074455 
	C336.668457,43.692398 336.508301,43.541885 336.405975,43.015717 
	C336.006165,40.742458 336.129578,38.071106 334.925812,37.167183 
	C333.747040,36.282032 331.143250,36.917400 329.299500,37.399769 
	C327.410492,37.893986 325.684692,39.011963 324.369110,39.630474 
	C326.031647,41.805992 328.286499,43.650311 329.083832,45.991104 
	C332.569702,56.224319 332.380890,66.815262 331.197968,77.413605 
	C330.796082,81.014542 328.418121,82.742020 325.102997,83.721336 
	C324.114014,84.013489 323.423737,85.316711 321.766174,87.000000 
	C331.424744,87.000000 339.212372,87.000000 347.000000,87.000000 
	C346.504028,87.666679 346.037445,88.882095 345.507294,88.910484 
	C342.194977,89.087830 338.868469,89.000000 335.546661,89.000000 
	C298.010223,89.000000 260.473755,89.000000 222.595551,88.626503 
	C232.806915,86.904480 239.914917,81.893906 237.630264,76.806107 
	C228.436691,83.592064 218.558868,81.906685 211.507935,74.973984 
	C207.014740,70.556152 204.525146,62.491386 207.201675,54.563309 
	C215.241638,54.563309 223.036942,54.563309 231.229340,54.644402 
	C233.238678,54.428085 235.887360,56.848862 236.165817,52.607296 
	C236.674286,49.259544 237.163239,46.306610 237.672195,43.232815 
	C232.171951,43.040676 232.370209,43.130463 230.479721,47.304626 
	C229.883942,48.620113 227.939377,50.109394 226.567841,50.153866 
	C220.433990,50.352749 214.284180,50.058475 208.088867,49.588310 
	C207.725861,48.419262 207.414139,47.604168 207.117111,46.393776 
	C206.808502,45.001431 206.485184,44.004391 206.161865,43.007351 
	C205.097534,43.572102 203.344299,43.915817 203.080673,44.737465 
	C201.361526,50.095760 199.965393,55.557690 198.357025,61.276512 
	C198.362900,62.367622 198.475388,63.167957 198.484344,64.351845 
	C199.203613,66.682907 200.026382,68.630417 200.538498,70.711639 
	C200.461899,71.624374 200.695953,72.403381 201.020599,73.522026 
	C201.407898,73.960579 201.956284,74.040924 201.965149,74.161057 
	C202.401688,80.079575 206.382675,83.276985 211.024155,86.270309 
	C211.367676,86.629227 211.675842,86.721405 212.348572,86.916382 
	C214.475418,87.679459 216.237717,88.339729 218.000000,89.000000 
M261.953430,84.760162 
	C262.255035,85.402451 262.556641,86.044746 263.520264,86.959030 
	C265.190887,86.671761 266.861511,86.384491 268.717621,85.325462 
	C269.817169,84.923668 270.916687,84.521881 272.775269,84.043564 
	C273.453217,83.898895 274.131134,83.754219 274.809082,83.609543 
	C274.803253,83.408073 274.797455,83.206604 274.791656,83.005135 
	C273.873596,82.899239 272.955566,82.793335 271.682587,82.204437 
	C270.788422,81.793442 269.894226,81.382446 268.908295,80.212784 
	C268.311584,78.793648 267.714905,77.374504 267.021759,75.459610 
	C266.981201,75.296234 266.940613,75.132858 267.185120,74.641762 
	C267.173889,74.075905 267.162659,73.510048 267.542694,72.288048 
	C267.669037,71.477722 267.903900,70.667656 267.905762,69.857040 
	C267.946564,52.054905 267.917938,34.252499 268.004303,16.450632 
	C268.036102,9.894110 269.206177,8.768418 275.488861,7.552838 
	C276.580597,7.341614 277.463898,6.053124 278.443451,5.262197 
	C277.390289,4.559840 276.292542,3.196713 275.291321,3.264270 
	C269.554565,3.651363 263.840759,4.378236 257.821228,5.021632 
	C257.821228,10.405402 257.835327,16.441027 257.816589,22.476547 
	C257.802338,27.074198 257.680603,31.672316 257.722198,36.269180 
	C257.823883,47.511566 257.992523,58.753345 257.981567,70.404709 
	C257.981567,70.404709 257.943359,70.839920 257.427887,71.047592 
	C257.346954,71.140869 257.194519,71.238159 257.199493,71.326622 
	C257.211090,71.533585 257.298218,71.736305 257.547333,72.461777 
	C257.723511,72.965736 257.899689,73.469696 257.932312,74.691887 
	C257.558838,76.106636 257.185364,77.521378 256.250031,79.245575 
	C257.044678,79.239250 257.839355,79.232918 259.309296,79.108521 
	C261.406158,78.815994 264.106293,76.445450 264.351868,81.105934 
	C263.622955,82.076881 262.894043,83.047836 261.953430,84.760162 
M178.204132,44.379402 
	C178.103760,44.222870 178.003387,44.066334 177.986801,43.187515 
	C177.597137,41.151077 177.921158,38.203888 176.691071,37.239948 
	C172.012222,33.573460 169.844009,39.831585 167.172729,40.120747 
	C168.692841,42.929371 171.331390,45.726112 171.638229,48.758770 
	C172.580231,58.069042 172.801788,67.467194 172.938705,76.836517 
	C172.992966,80.549835 170.487503,82.713959 166.852631,83.715195 
	C165.857727,83.989250 165.163940,85.356407 163.569504,87.015175 
	C172.524841,87.015175 179.662140,87.083160 186.794891,86.934204 
	C187.749725,86.914268 188.681671,85.797714 189.624222,85.188995 
	C188.936432,84.492401 188.365677,83.416481 187.541412,83.162148 
	C182.964401,81.749886 181.414627,77.930084 181.686096,73.080482 
	C182.172852,64.385185 181.778915,55.634071 181.497681,46.914520 
	C181.474930,46.209053 179.489716,45.566879 178.204132,44.379402 
M133.848251,87.116486 
	C141.137970,87.116486 148.427689,87.116486 155.717392,87.116486 
	C155.964859,86.607704 156.212326,86.098915 156.459808,85.590134 
	C155.355865,84.752396 154.345734,83.391602 153.130646,83.173676 
	C149.277069,82.482521 147.794495,80.281693 147.843948,76.573479 
	C147.895035,72.744820 147.327728,68.845284 147.870850,65.098503 
	C149.101074,56.611282 145.783356,48.269737 147.731949,39.686588 
	C148.710709,35.375355 146.812347,34.585297 142.622070,36.380161 
	C139.013641,37.925804 135.342163,39.324268 131.174347,40.998371 
	C132.122055,41.837109 132.697021,42.789272 133.400040,42.895721 
	C137.739578,43.552803 138.442261,46.621132 138.512482,50.186939 
	C138.655258,57.438133 138.840134,64.688911 138.919510,71.940826 
	C139.017624,80.903221 138.716537,81.276871 129.107208,84.298294 
	C130.862442,85.595306 131.898239,86.360710 133.848251,87.116486 
M296.994751,65.492027 
	C297.037415,68.822052 297.046600,72.152931 297.131195,75.481895 
	C297.238678,79.713089 295.735596,82.466614 291.118500,83.144188 
	C290.051331,83.300804 289.205170,84.963081 287.338898,86.871796 
	C297.405029,86.871796 305.655334,86.871796 314.902893,86.871796 
	C313.807983,85.204369 313.185974,83.328995 312.449860,83.283096 
	C306.660278,82.922096 305.976593,79.179237 306.019623,74.569130 
	C306.125336,63.231606 306.067810,51.892662 306.133728,40.554626 
	C306.167084,34.820415 305.438873,34.348579 300.399323,36.638500 
	C297.075500,38.148804 293.613739,39.355507 289.672211,40.911995 
	C290.263824,41.541035 290.827911,42.710781 291.571564,42.838989 
	C296.383759,43.668659 296.975098,47.054985 296.935486,51.012032 
	C296.890503,55.505985 296.960968,60.001102 296.994751,65.492027 
M227.383987,40.071716 
	C228.086975,40.738880 228.789978,41.406044 229.492981,42.073208 
	C229.937225,41.928925 230.381470,41.784641 230.825714,41.640358 
	C230.205994,39.446938 230.209167,36.171268 228.795349,35.357540 
	C227.314056,34.504974 224.472534,36.015736 222.225525,36.493557 
	C222.281357,36.884998 222.337204,37.276443 222.393051,37.667885 
	C223.863892,38.318127 225.334747,38.968365 227.383987,40.071716 
M247.031754,3.677122 
	C246.214661,9.855478 251.036316,7.289068 253.828613,8.524583 
	C254.264862,3.180192 251.151047,2.836023 247.031754,3.677122 
M259.500214,84.087471 
	C259.571716,83.563210 259.643219,83.038956 259.714722,82.514694 
	C259.325409,82.553253 258.936066,82.591820 258.546783,82.630386 
	C258.615295,83.110901 258.683807,83.591423 259.500214,84.087471 
z"/>
<path fill="#0D0D0D" opacity="1.000000" stroke="none" 
	d="
M72.670082,61.201954 
	C72.370750,56.719116 72.071411,52.236282 72.138748,47.195690 
	C73.542763,45.767643 74.580109,44.897350 75.213036,44.366348 
	C74.399780,43.142628 73.721146,42.121468 73.042503,41.100311 
	C73.042503,41.100311 73.089859,40.992493 73.340424,40.868462 
	C73.731117,40.279057 73.871246,39.813679 74.011368,39.348301 
	C74.782524,38.996765 75.553688,38.645229 76.662506,38.580414 
	C77.649879,39.289886 78.299599,39.712635 78.949318,40.135384 
	C79.310776,43.826672 79.800903,47.511383 79.990021,51.211479 
	C80.123779,53.828308 79.849998,56.465969 79.310272,59.603592 
	C78.069611,60.841808 77.276825,61.570770 75.711540,63.010033 
	C77.797958,63.010033 78.715607,63.010033 79.633255,63.010033 
	C79.903000,65.963470 79.906929,68.970863 80.493248,71.860054 
	C82.130577,79.928368 87.781021,83.047203 95.546196,80.071335 
	C98.430138,78.966110 101.021439,77.097282 104.262070,75.223831 
	C104.684608,73.576439 104.591278,72.281906 104.497940,70.987366 
	C104.136612,62.169849 103.142975,53.305267 105.227615,43.710827 
	C105.051437,43.375725 103.092873,41.277222 103.548317,40.189636 
	C104.608467,37.658047 107.083618,38.739697 109.199913,39.478683 
	C110.314903,39.868023 111.602562,39.762875 113.064011,39.905586 
	C113.064011,50.516739 112.969299,61.154366 113.107765,71.788956 
	C113.168373,76.443573 112.164261,81.997421 119.502632,82.502731 
	C119.898582,82.529999 120.630142,83.897972 120.464325,84.394150 
	C120.223320,85.115250 119.382027,86.001831 118.667038,86.138275 
	C114.422096,86.948357 110.139755,87.562447 105.934990,88.621201 
	C105.555557,89.000000 105.111107,89.000000 104.270370,88.612869 
	C103.468323,86.129913 103.062576,84.034096 102.724503,82.287827 
	C97.235924,84.630684 92.117966,86.815346 87.000000,89.000000 
	C85.611107,89.000000 84.222221,89.000000 82.416664,89.000000 
	C71.575752,85.011040 70.744431,76.201561 71.249786,66.657211 
	C73.063087,66.484230 74.520721,66.553146 75.704208,66.609100 
	C74.401573,64.287659 73.535828,62.744808 72.670082,61.201954 
M107.665741,79.972313 
	C107.207222,81.048981 106.748703,82.125648 106.290184,83.202309 
	C106.693008,83.313477 107.095833,83.424644 107.498657,83.535812 
	C107.647186,82.519012 107.795708,81.502220 107.665741,79.972313 
M76.584190,77.806694 
	C76.205093,77.802223 75.825989,77.797752 75.446892,77.793282 
	C75.445183,77.950584 75.432777,78.244606 75.443291,78.245430 
	C75.820549,78.274910 76.199951,78.277000 76.584190,77.806694 
M75.151604,72.211555 
	C75.208275,72.815964 75.264946,73.420372 75.321617,74.024788 
	C75.535500,73.988266 75.749374,73.951736 75.963249,73.915215 
	C75.824394,73.240189 75.685539,72.565163 75.151604,72.211555 
M107.280632,64.437828 
	C106.997314,64.706818 106.713997,64.975815 106.430672,65.244804 
	C106.542351,65.361320 106.744545,65.585587 106.752640,65.578781 
	C107.051308,65.327904 107.331993,65.055634 107.280632,64.437828 
M78.262283,80.826469 
	C78.374954,80.981102 78.487617,81.135742 78.600288,81.290375 
	C78.577866,81.076225 78.555443,80.862076 78.262283,80.826469 
M75.526146,80.651680 
	C75.473923,80.851128 75.421692,81.050568 75.369461,81.250015 
	C75.497177,81.121933 75.624901,80.993858 75.526146,80.651680 
M103.421761,79.486198 
	C103.421761,79.486198 103.522087,79.428329 103.421761,79.486198 
z"/>
<path fill="#090909" opacity="1.000000" stroke="none" 
	d="
M72.625000,0.999999 
	C71.675629,6.320430 70.462631,11.673162 68.936470,16.935066 
	C68.616768,18.037325 67.143372,18.804970 65.269005,20.639677 
	C65.112114,17.964363 65.039375,16.889196 64.987671,15.813022 
	C64.790596,11.711149 63.376633,8.992591 58.549622,9.185547 
	C53.245552,9.397575 47.926460,9.233866 42.008518,9.233866 
	C42.008518,16.995533 42.080643,25.003290 41.971962,33.008595 
	C41.930225,36.082714 41.476284,39.151241 40.675415,42.606892 
	C39.586617,43.352749 39.032581,43.714031 38.478542,44.075314 
	C39.563366,44.390835 40.648193,44.706360 41.733017,45.021881 
	C41.108593,47.451469 40.484173,49.881062 39.647911,52.692734 
	C38.598278,54.682747 37.760479,56.290676 36.583965,57.903870 
	C35.489685,58.545570 34.734116,59.182014 33.978546,59.818462 
	C33.036987,59.267525 31.333961,58.767723 31.292904,58.156315 
	C31.155331,56.107620 31.611288,54.019073 32.205345,51.459145 
	C33.992851,48.915333 35.415016,46.858166 37.133820,44.371906 
	C34.839462,44.613911 33.246059,44.781979 31.652655,44.950050 
	C31.822117,33.983150 32.002441,23.016390 32.144215,12.049129 
	C32.158367,10.953985 31.938097,9.855809 31.792660,8.424851 
	C26.116177,8.852245 20.700874,9.059728 15.343045,9.728004 
	C11.205641,10.244057 8.329804,12.556902 6.563665,16.617935 
	C6.014112,17.881569 3.369040,18.233868 1.341643,19.001686 
	C1.000000,19.000000 1.000000,18.500000 1.299693,18.041313 
	C3.066257,12.055084 4.533128,6.527542 6.000000,1.000000 
	C6.750000,1.000000 7.500000,1.000000 8.921519,1.221311 
	C11.642580,2.051989 13.673992,3.111272 15.744725,3.194708 
	C26.025299,3.608944 36.331585,4.216649 46.598530,3.866960 
	C54.422493,3.600479 62.201176,2.004506 70.000000,1.000000 
	C70.750000,1.000000 71.500000,1.000000 72.625000,0.999999 
z"/>
<path fill="#050505" opacity="1.000000" stroke="none" 
	d="
M230.832245,54.563309 
	C223.036942,54.563309 215.241638,54.563309 207.201675,54.563309 
	C204.525146,62.491386 207.014740,70.556152 211.507935,74.973984 
	C218.558868,81.906685 228.436691,83.592064 237.630264,76.806107 
	C239.914917,81.893906 232.806915,86.904480 222.126892,88.626503 
	C220.933334,89.000000 219.866653,89.000000 218.399994,89.000000 
	C216.237717,88.339729 214.475418,87.679459 212.227448,86.731544 
	C211.538437,86.215645 211.287445,86.068871 210.988815,86.003571 
	C206.382675,83.276985 202.401688,80.079575 201.965149,74.161057 
	C201.956284,74.040924 201.407898,73.960579 201.039429,73.087425 
	C200.928146,71.734772 200.888641,71.156349 200.849152,70.577927 
	C200.026382,68.630417 199.203613,66.682907 198.838348,64.330704 
	C199.794342,63.386627 200.292847,62.847240 200.791351,62.307846 
	C200.015442,61.867138 199.239532,61.426434 198.463623,60.985729 
	C199.965393,55.557690 201.361526,50.095760 203.080673,44.737465 
	C203.344299,43.915817 205.097534,43.572102 206.161865,43.007351 
	C206.485184,44.004391 206.808502,45.001431 206.948044,46.656090 
	C206.212723,48.293743 205.661163,49.273777 205.080078,50.578075 
	C205.217865,51.486778 205.385193,52.071217 205.762131,52.852997 
	C206.226028,53.003365 206.480286,52.956387 206.734558,52.909409 
	C206.552765,52.546810 206.370972,52.184216 206.161209,51.617546 
	C206.133240,51.413467 206.175598,51.003685 206.420532,50.868065 
	C207.157013,50.469048 207.648560,50.205658 208.140121,49.942268 
	C214.284180,50.058475 220.433990,50.352749 226.567841,50.153866 
	C227.939377,50.109394 229.883942,48.620113 230.479721,47.304626 
	C232.370209,43.130463 232.171951,43.040676 237.672195,43.232815 
	C237.163239,46.306610 236.674286,49.259544 235.798279,52.611763 
	C233.884888,53.528469 232.358566,54.045887 230.832245,54.563309 
M213.173294,82.275368 
	C213.025146,82.382721 212.876999,82.490074 212.728851,82.597412 
	C212.933578,82.576523 213.138321,82.555634 213.173294,82.275368 
M203.479126,52.367878 
	C203.533493,52.158241 203.587860,51.948601 203.642242,51.738968 
	C203.507919,51.874058 203.373611,52.009144 203.479126,52.367878 
M214.485062,85.581917 
	C214.485062,85.581917 214.425873,85.479431 214.485062,85.581917 
M202.411819,59.481762 
	C202.411819,59.481762 202.523117,59.414837 202.411819,59.481762 
M213.516312,80.409409 
	C213.516312,80.409409 213.585007,80.523277 213.516312,80.409409 
z"/>
<path fill="#0B0B0B" opacity="1.000000" stroke="none" 
	d="
M337.297882,44.306004 
	C338.193237,45.610107 339.841003,46.902306 339.861847,48.220264 
	C339.997284,56.773491 339.950653,65.339287 339.604340,73.886406 
	C339.428894,78.216316 342.084564,82.424713 346.604980,83.050270 
	C347.000000,84.066673 347.000000,85.133339 347.000000,86.600006 
	C339.212372,87.000000 331.424744,87.000000 321.766174,87.000000 
	C323.423737,85.316711 324.114014,84.013489 325.102997,83.721336 
	C328.418121,82.742020 330.796082,81.014542 331.197968,77.413605 
	C332.380890,66.815262 332.569702,56.224319 329.083832,45.991104 
	C328.286499,43.650311 326.031647,41.805992 324.369110,39.630474 
	C325.684692,39.011963 327.410492,37.893986 329.299500,37.399769 
	C331.143250,36.917400 333.747040,36.282032 334.925812,37.167183 
	C336.129578,38.071106 336.006165,40.742458 336.163727,43.220528 
	C335.669586,44.135338 335.475494,44.469669 335.281433,44.804016 
	C335.953583,44.638016 336.625732,44.472012 337.297882,44.306004 
z"/>
<path fill="#E7E7E7" opacity="1.000000" stroke="none" 
	d="
M69.531342,1.000000 
	C62.201176,2.004506 54.422493,3.600479 46.598530,3.866960 
	C36.331585,4.216649 26.025299,3.608944 15.744725,3.194708 
	C13.673992,3.111272 11.642580,2.051989 9.296519,1.221311 
	C29.020895,1.000000 49.041790,1.000000 69.531342,1.000000 
z"/>
<path fill="#EFEFEF" opacity="1.000000" stroke="none" 
	d="
M87.467606,89.000000 
	C92.117966,86.815346 97.235924,84.630684 102.724503,82.287827 
	C103.062576,84.034096 103.468323,86.129913 103.937035,88.612869 
	C98.645073,89.000000 93.290138,89.000000 87.467606,89.000000 
z"/>
<path fill="#EEEEEE" opacity="1.000000" stroke="none" 
	d="
M5.500038,1.000000 
	C4.533128,6.527542 3.066257,12.055084 1.299693,17.791313 
	C1.000000,12.465096 1.000000,6.930192 1.000000,1.000000 
	C2.314567,1.000000 3.657321,1.000000 5.500038,1.000000 
z"/>
<path fill="#0B0B0B" opacity="1.000000" stroke="none" 
	d="
M266.900024,74.969475 
	C266.940613,75.132858 266.981201,75.296234 266.921997,76.044098 
	C266.859253,78.756577 266.896210,80.884567 266.845154,82.908424 
	C266.757141,82.804298 266.501495,82.899223 266.467133,82.902405 
	C266.432770,82.905586 266.366455,82.924683 266.023621,82.864578 
	C265.449585,82.824951 265.218445,82.845444 264.995361,82.507790 
	C264.960938,81.674644 264.918396,81.199631 264.875885,80.724625 
	C264.106293,76.445450 261.406158,78.815994 258.517151,79.088036 
	C257.420593,79.023735 257.116211,78.979927 256.811859,78.936119 
	C257.185364,77.521378 257.558838,76.106636 258.304871,74.191551 
	C259.421875,72.631454 260.166290,71.571686 260.910736,70.511925 
	C259.985229,70.339745 259.059753,70.167557 258.134247,69.995369 
	C257.992523,58.753345 257.823883,47.511566 257.722198,36.269180 
	C257.680603,31.672316 257.802338,27.074198 257.816589,22.476547 
	C257.835327,16.441027 257.821228,10.405402 257.821228,5.021632 
	C263.840759,4.378236 269.554565,3.651363 275.291321,3.264270 
	C276.292542,3.196713 277.390289,4.559840 278.443451,5.262200 
	C277.463898,6.053124 276.580597,7.341614 275.488861,7.552838 
	C269.206177,8.768418 268.036102,9.894110 268.004303,16.450632 
	C267.917938,34.252499 267.946564,52.054905 267.905762,69.857040 
	C267.903900,70.667656 267.669037,71.477722 267.106018,72.743912 
	C266.746246,73.789673 266.823151,74.379570 266.900024,74.969475 
M264.818726,67.239731 
	C264.874481,67.408012 264.930206,67.576294 264.985962,67.744576 
	C265.039703,67.575783 265.093414,67.406982 264.818726,67.239731 
z"/>
<path fill="#0B0B0B" opacity="1.000000" stroke="none" 
	d="
M133.391144,87.121300 
	C131.898239,86.360710 130.862442,85.595306 129.107208,84.298294 
	C138.716537,81.276871 139.017624,80.903221 138.919510,71.940826 
	C138.840134,64.688911 138.655258,57.438133 138.512482,50.186939 
	C138.442261,46.621132 137.739578,43.552803 133.400040,42.895721 
	C132.697021,42.789272 132.122055,41.837109 131.174347,40.998371 
	C135.342163,39.324268 139.013641,37.925804 142.622070,36.380161 
	C146.812347,34.585297 148.710709,35.375355 147.731949,39.686588 
	C145.783356,48.269737 149.101074,56.611282 147.870850,65.098503 
	C147.327728,68.845284 147.895035,72.744820 147.843948,76.573479 
	C147.794495,80.281693 149.277069,82.482521 153.130646,83.173676 
	C154.345734,83.391602 155.355865,84.752396 156.459808,85.590134 
	C156.212326,86.098915 155.964859,86.607704 155.717392,87.116486 
	C148.427689,87.116486 141.137970,87.116486 133.391144,87.121300 
z"/>
<path fill="#060606" opacity="1.000000" stroke="none" 
	d="
M296.988007,64.993866 
	C296.960968,60.001102 296.890503,55.505985 296.935486,51.012032 
	C296.975098,47.054985 296.383759,43.668659 291.571564,42.838989 
	C290.827911,42.710781 290.263824,41.541035 289.672211,40.911995 
	C293.613739,39.355507 297.075500,38.148804 300.399323,36.638500 
	C305.438873,34.348579 306.167084,34.820415 306.133728,40.554626 
	C306.067810,51.892662 306.125336,63.231606 306.019623,74.569130 
	C305.976593,79.179237 306.660278,82.922096 312.449860,83.283096 
	C313.185974,83.328995 313.807983,85.204369 314.902893,86.871796 
	C305.655334,86.871796 297.405029,86.871796 287.338898,86.871796 
	C289.205170,84.963081 290.051331,83.300804 291.118500,83.144188 
	C295.735596,82.466614 297.238678,79.713089 297.131195,75.481895 
	C297.046600,72.152931 297.037415,68.822052 296.988007,64.993866 
z"/>
<path fill="#0B0B0B" opacity="1.000000" stroke="none" 
	d="
M178.416428,44.895294 
	C179.489716,45.566879 181.474930,46.209053 181.497681,46.914520 
	C181.778915,55.634071 182.172852,64.385185 181.686096,73.080482 
	C181.414627,77.930084 182.964401,81.749886 187.541412,83.162148 
	C188.365677,83.416481 188.936432,84.492401 189.624222,85.188995 
	C188.681671,85.797714 187.749725,86.914268 186.794891,86.934204 
	C179.662140,87.083160 172.524841,87.015175 163.569504,87.015175 
	C165.163940,85.356407 165.857727,83.989250 166.852631,83.715195 
	C170.487503,82.713959 172.992966,80.549835 172.938705,76.836517 
	C172.801788,67.467194 172.580231,58.069042 171.638229,48.758770 
	C171.331390,45.726112 168.692841,42.929371 167.172729,40.120747 
	C169.844009,39.831585 172.012222,33.573460 176.691071,37.239948 
	C177.921158,38.203888 177.597137,41.151077 177.675491,43.627956 
	C177.714935,44.344028 178.065674,44.619663 178.416428,44.895294 
z"/>
<path fill="#0A0A0A" opacity="1.000000" stroke="none" 
	d="
M49.065067,86.149719 
	C47.093384,86.461647 45.125397,87.012024 43.149357,87.042610 
	C36.074905,87.152115 28.997730,87.085510 20.498735,87.085510 
	C21.547598,85.327034 22.293743,83.130188 22.929192,83.161743 
	C27.619221,83.394730 29.944414,80.358421 32.886658,76.993729 
	C33.345497,75.717537 33.159492,74.574883 32.973488,73.432220 
	C35.642887,73.136627 38.312283,72.841034 41.736595,72.461838 
	C41.889542,75.555199 42.041943,78.637489 42.201939,81.873344 
	C42.677444,81.912048 43.934250,82.014343 45.578880,82.526962 
	C46.217216,83.843208 46.467720,84.749138 46.718227,85.655067 
	C46.980026,85.626320 47.241825,85.597572 47.503624,85.568825 
	C47.668690,84.714310 47.833759,83.859795 47.998825,83.005280 
	C48.170277,82.958488 48.341724,82.911705 48.755188,83.368195 
	C49.019825,84.630898 49.042446,85.390305 49.065067,86.149719 
M39.333694,83.647858 
	C39.604416,84.194550 39.875137,84.741241 40.145855,85.287926 
	C40.643940,84.912407 41.142025,84.536888 41.640114,84.161369 
	C41.037853,83.856377 40.435593,83.551384 39.333694,83.647858 
z"/>
<path fill="#181818" opacity="1.000000" stroke="none" 
	d="
M227.094788,39.845161 
	C225.334747,38.968365 223.863892,38.318127 222.393051,37.667885 
	C222.337204,37.276443 222.281357,36.884998 222.225525,36.493557 
	C224.472534,36.015736 227.314056,34.504974 228.795349,35.357540 
	C230.209167,36.171268 230.205994,39.446938 230.825714,41.640358 
	C230.381470,41.784641 229.937225,41.928925 229.492981,42.073208 
	C228.789978,41.406044 228.086975,40.738880 227.094788,39.845161 
z"/>
<path fill="#1B1B1B" opacity="1.000000" stroke="none" 
	d="
M247.318939,3.350023 
	C251.151047,2.836023 254.264862,3.180192 253.828613,8.524583 
	C251.036316,7.289068 246.214661,9.855478 247.318939,3.350023 
z"/>
<path fill="#1F1F1F" opacity="1.000000" stroke="none" 
	d="
M34.316292,59.879749 
	C34.734116,59.182014 35.489685,58.545570 36.771935,58.064072 
	C38.132442,57.477074 38.966267,56.735134 39.800091,55.993191 
	C40.284595,58.421707 40.769100,60.850224 40.999039,63.527161 
	C40.479511,63.672192 40.214558,63.568798 39.713699,63.584290 
	C38.794147,63.675121 38.110497,63.647072 37.426846,63.619022 
	C36.502575,62.393028 35.578304,61.167034 34.316292,59.879749 
z"/>
<path fill="#181818" opacity="1.000000" stroke="none" 
	d="
M31.499949,45.382095 
	C33.246059,44.781979 34.839462,44.613911 37.133820,44.371906 
	C35.415016,46.858166 33.992851,48.915333 32.302101,51.013611 
	C31.804756,49.307861 31.575998,47.560997 31.499949,45.382095 
z"/>
<path fill="#949494" opacity="1.000000" stroke="none" 
	d="
M33.304211,73.255386 
	C33.159492,74.574883 33.345497,75.717537 33.214378,76.862579 
	C32.328815,74.339684 31.760372,71.814392 31.887104,69.078140 
	C33.374901,68.913452 34.167526,68.959724 35.251186,69.061737 
	C35.739304,69.131096 35.936386,69.144730 36.133469,69.158371 
	C35.300625,70.465103 34.467781,71.771828 33.304211,73.255386 
z"/>
<path fill="#4D4D4D" opacity="1.000000" stroke="none" 
	d="
M269.000061,80.971436 
	C269.894226,81.382446 270.788422,81.793442 271.892883,82.804779 
	C272.074219,83.643440 272.045227,83.881767 272.016235,84.120094 
	C270.916687,84.521881 269.817169,84.923668 268.269897,85.698441 
	C267.230469,85.373772 266.638794,84.676117 266.204529,83.833221 
	C266.607300,83.460289 266.653809,83.197372 266.501495,82.899223 
	C266.501495,82.899223 266.757141,82.804298 267.156128,82.892731 
	C268.036743,82.311256 268.518402,81.641350 269.000061,80.971436 
z"/>
<path fill="#7E7E7E" opacity="1.000000" stroke="none" 
	d="
M32.024044,67.015038 
	C31.932352,64.542725 30.457634,60.863022 35.795227,63.618500 
	C36.032272,64.885750 36.053692,65.476791 35.725605,66.137161 
	C34.258747,66.476013 33.141396,66.745529 32.024044,67.015038 
z"/>
<path fill="#1F1F1F" opacity="1.000000" stroke="none" 
	d="
M49.359386,86.180328 
	C49.042446,85.390305 49.019825,84.630898 48.991531,83.491516 
	C49.949230,83.165253 50.912605,83.218964 52.498566,83.307388 
	C52.103554,84.823662 51.747726,86.189545 51.391899,87.555420 
	C50.812504,87.107262 50.233105,86.659103 49.359386,86.180328 
z"/>
<path fill="#101010" opacity="1.000000" stroke="none" 
	d="
M72.337112,61.432442 
	C73.535828,62.744808 74.401573,64.287659 75.704208,66.609100 
	C74.520721,66.553146 73.063087,66.484230 71.366364,66.219200 
	C71.419579,64.569702 71.711861,63.116318 72.337112,61.432442 
z"/>
<path fill="#B0B0B0" opacity="1.000000" stroke="none" 
	d="
M268.954163,80.592110 
	C268.518402,81.641350 268.036743,82.311256 267.244141,82.996857 
	C266.896210,80.884567 266.859253,78.756577 266.970215,76.291977 
	C267.714905,77.374504 268.311584,78.793648 268.954163,80.592110 
z"/>
<path fill="#101010" opacity="1.000000" stroke="none" 
	d="
M72.733551,41.090797 
	C73.721146,42.121468 74.399780,43.142628 75.213036,44.366348 
	C74.580109,44.897350 73.542763,45.767643 72.239273,46.824196 
	C72.123619,45.034069 72.274109,43.057678 72.733551,41.090797 
z"/>
<path fill="#050505" opacity="1.000000" stroke="none" 
	d="
M36.075111,66.067825 
	C36.053692,65.476791 36.032272,64.885750 36.006390,63.850842 
	C36.331799,63.378647 36.662220,63.369064 37.210014,63.498623 
	C38.110497,63.647072 38.794147,63.675121 39.512665,63.853798 
	C39.395908,64.643867 39.244286,65.283302 38.972721,66.097687 
	C38.852779,66.272636 38.905033,66.693634 38.905037,66.693634 
	C38.607300,66.921791 38.309566,67.149948 37.583717,67.608032 
	C36.795441,67.247910 36.435276,66.657867 36.075111,66.067825 
z"/>
<path fill="#121212" opacity="1.000000" stroke="none" 
	d="
M258.057922,70.200043 
	C259.059753,70.167557 259.985229,70.339745 260.910736,70.511925 
	C260.166290,71.571686 259.421875,72.631454 258.376648,73.832443 
	C257.899689,73.469696 257.723511,72.965736 257.601227,72.049461 
	C257.816559,71.395035 257.912659,71.129295 257.943359,70.839920 
	C257.943359,70.839920 257.981567,70.404709 258.057922,70.200043 
z"/>
<path fill="#181818" opacity="1.000000" stroke="none" 
	d="
M39.909790,55.708466 
	C38.966267,56.735134 38.132442,57.477074 37.110649,58.058811 
	C37.760479,56.290676 38.598278,54.682747 39.764675,53.024071 
	C40.068676,53.790127 40.044079,54.606934 39.909790,55.708466 
z"/>
<path fill="#6C6C6C" opacity="1.000000" stroke="none" 
	d="
M231.229340,54.644402 
	C232.358566,54.045887 233.884888,53.528469 235.778748,53.006580 
	C235.887360,56.848862 233.238678,54.428085 231.229340,54.644402 
z"/>
<path fill="#1F1F1F" opacity="1.000000" stroke="none" 
	d="
M266.047119,83.978462 
	C266.638794,84.676117 267.230469,85.373772 268.177124,86.084328 
	C266.861511,86.384491 265.190887,86.671761 263.272888,86.476456 
	C263.307312,85.344818 263.589050,84.695755 264.074402,84.036514 
	C264.278015,84.026344 264.685730,84.022270 265.015137,84.072609 
	C265.559570,84.071518 265.774536,84.020096 266.003845,83.971992 
	C266.018158,83.975311 266.047119,83.978462 266.047119,83.978462 
z"/>
<path fill="#464646" opacity="1.000000" stroke="none" 
	d="
M35.725605,66.137161 
	C36.435276,66.657867 36.795441,67.247910 37.453140,67.872452 
	C37.391460,68.265129 37.032246,68.623314 36.403248,69.069931 
	C35.936386,69.144730 35.739304,69.131096 35.143116,68.722656 
	C33.816963,68.238022 32.889919,68.148201 31.962879,68.058372 
	C31.736519,67.867188 31.510159,67.676010 31.283796,67.484833 
	C31.386606,67.374184 31.489420,67.263535 31.808138,67.083961 
	C33.141396,66.745529 34.258747,66.476013 35.725605,66.137161 
z"/>
<path fill="#101010" opacity="1.000000" stroke="none" 
	d="
M79.709137,62.632957 
	C78.715607,63.010033 77.797958,63.010033 75.711540,63.010033 
	C77.276825,61.570770 78.069611,60.841808 79.152252,60.047813 
	C79.556404,60.740479 79.670708,61.498180 79.709137,62.632957 
z"/>
<path fill="#0A0A0A" opacity="1.000000" stroke="none" 
	d="
M205.109604,50.253807 
	C205.661163,49.273777 206.212723,48.293743 206.933334,47.051395 
	C207.414139,47.604168 207.725861,48.419262 208.088867,49.588310 
	C207.648560,50.205658 207.157013,50.469048 206.272461,50.695305 
	C205.700546,50.375362 205.443924,50.240574 205.109604,50.253807 
z"/>
<path fill="#1F1F1F" opacity="1.000000" stroke="none" 
	d="
M47.777519,82.828049 
	C47.833759,83.859795 47.668690,84.714310 47.503624,85.568825 
	C47.241825,85.597572 46.980026,85.626320 46.718227,85.655067 
	C46.467720,84.749138 46.217216,83.843208 45.969925,82.583282 
	C46.500828,82.369804 47.028522,82.510307 47.777519,82.828049 
z"/>
<path fill="#101010" opacity="1.000000" stroke="none" 
	d="
M104.358658,71.371567 
	C104.591278,72.281906 104.684608,73.576439 104.458618,74.936813 
	C104.165993,73.920349 104.192680,72.838058 104.358658,71.371567 
z"/>
<path fill="#0A0A0A" opacity="1.000000" stroke="none" 
	d="
M198.357025,61.276512 
	C199.239532,61.426434 200.015442,61.867138 200.791351,62.307846 
	C200.292847,62.847240 199.794342,63.386627 198.941849,63.947151 
	C198.475388,63.167957 198.362900,62.367622 198.357025,61.276512 
z"/>
<path fill="#181818" opacity="1.000000" stroke="none" 
	d="
M41.744881,44.727890 
	C40.648193,44.706360 39.563366,44.390835 38.478542,44.075314 
	C39.032581,43.714031 39.586617,43.352749 40.476250,42.988571 
	C41.126808,43.468418 41.441776,43.951160 41.744881,44.727890 
z"/>
<path fill="#1B1B1B" opacity="1.000000" stroke="none" 
	d="
M264.685730,84.022270 
	C264.685730,84.022270 264.278015,84.026344 263.791687,84.034134 
	C262.925293,84.034218 262.545197,84.026497 262.165131,84.018784 
	C262.894043,83.047836 263.622955,82.076881 264.613892,80.915283 
	C264.918396,81.199631 264.960938,81.674644 264.946350,82.804153 
	C264.821350,83.646530 264.753540,83.834404 264.685730,84.022270 
z"/>
<path fill="#101010" opacity="1.000000" stroke="none" 
	d="
M78.846375,39.768238 
	C78.299599,39.712635 77.649879,39.289886 76.998222,38.563759 
	C77.578667,38.640621 78.161049,39.020855 78.846375,39.768238 
z"/>
<path fill="#949494" opacity="1.000000" stroke="none" 
	d="
M39.092659,65.922745 
	C39.244286,65.283302 39.395908,64.643867 39.748566,63.734917 
	C40.214558,63.568798 40.479511,63.672192 41.133358,63.952400 
	C41.496948,64.701523 41.471649,65.273842 40.884068,65.916306 
	C39.912075,65.965225 39.502369,65.943985 39.092659,65.922745 
z"/>
<path fill="#1F1F1F" opacity="1.000000" stroke="none" 
	d="
M259.126282,84.079712 
	C258.683807,83.591423 258.615295,83.110901 258.546753,82.630386 
	C258.936066,82.591820 259.325409,82.553253 259.714722,82.514694 
	C259.643219,83.038956 259.571716,83.563210 259.126282,84.079712 
z"/>
<path fill="#121212" opacity="1.000000" stroke="none" 
	d="
M267.042572,74.805618 
	C266.823151,74.379570 266.746246,73.789673 266.910400,73.071976 
	C267.162659,73.510048 267.173889,74.075905 267.042572,74.805618 
z"/>
<path fill="#B0B0B0" opacity="1.000000" stroke="none" 
	d="
M31.961464,68.257767 
	C32.889919,68.148201 33.816963,68.238022 34.852077,68.666916 
	C34.167526,68.959724 33.374901,68.913452 32.184944,68.841957 
	C31.787609,68.816734 31.960049,68.457153 31.961464,68.257767 
z"/>
<path fill="#0A0A0A" opacity="1.000000" stroke="none" 
	d="
M272.395752,84.081833 
	C272.045227,83.881767 272.074219,83.643440 272.070374,83.046280 
	C272.955566,82.793335 273.873596,82.899239 274.791656,83.005135 
	C274.797455,83.206604 274.803253,83.408073 274.809082,83.609543 
	C274.131134,83.754219 273.453217,83.898895 272.395752,84.081833 
z"/>
<path fill="#050505" opacity="1.000000" stroke="none" 
	d="
M262.059265,84.389465 
	C262.545197,84.026497 262.925293,84.034218 263.588074,84.044312 
	C263.589050,84.695755 263.307312,85.344818 262.941895,86.340462 
	C262.556641,86.044746 262.255035,85.402451 262.059265,84.389465 
z"/>
<path fill="#464646" opacity="1.000000" stroke="none" 
	d="
M38.972717,66.097687 
	C39.502369,65.943985 39.912075,65.965225 40.631462,65.992538 
	C40.460236,66.318024 39.979332,66.637444 39.201733,66.825241 
	C38.905033,66.693634 38.852779,66.272636 38.972717,66.097687 
z"/>
<path fill="#121212" opacity="1.000000" stroke="none" 
	d="
M256.530945,79.090851 
	C257.116211,78.979927 257.420593,79.023735 258.179504,79.147072 
	C257.839355,79.232918 257.044678,79.239250 256.530945,79.090851 
z"/>
<path fill="#101010" opacity="1.000000" stroke="none" 
	d="
M73.699165,39.336128 
	C73.871246,39.813679 73.731117,40.279057 73.393021,40.894928 
	C73.259026,40.471600 73.322990,39.897778 73.699165,39.336128 
z"/>
<path fill="#0A0A0A" opacity="1.000000" stroke="none" 
	d="
M200.538483,70.711647 
	C200.888641,71.156349 200.928146,71.734772 200.948822,72.747787 
	C200.695953,72.403381 200.461899,71.624374 200.538483,70.711647 
z"/>
<path fill="#0A0A0A" opacity="1.000000" stroke="none" 
	d="
M211.024155,86.270309 
	C211.287445,86.068871 211.538437,86.215645 211.862900,86.628738 
	C211.675842,86.721405 211.367676,86.629227 211.024155,86.270309 
z"/>
<path fill="#0B0B0B" opacity="1.000000" stroke="none" 
	d="
M257.685608,70.943756 
	C257.912659,71.129295 257.816559,71.395035 257.504944,71.788940 
	C257.298218,71.736305 257.211090,71.533585 257.199493,71.326622 
	C257.194519,71.238159 257.346954,71.140869 257.685608,70.943756 
z"/>
<path fill="#101010" opacity="1.000000" stroke="none" 
	d="
M107.804993,80.228867 
	C107.795708,81.502220 107.647186,82.519012 107.498657,83.535812 
	C107.095833,83.424644 106.693008,83.313477 106.290184,83.202309 
	C106.748703,82.125648 107.207222,81.048981 107.804993,80.228867 
z"/>
<path fill="#101010" opacity="1.000000" stroke="none" 
	d="
M76.581619,78.044800 
	C76.199951,78.277000 75.820549,78.274910 75.443291,78.245430 
	C75.432777,78.244606 75.445183,77.950584 75.446892,77.793282 
	C75.825989,77.797752 76.205093,77.802223 76.581619,78.044800 
z"/>
<path fill="#101010" opacity="1.000000" stroke="none" 
	d="
M75.349144,72.050842 
	C75.685539,72.565163 75.824394,73.240189 75.963249,73.915215 
	C75.749374,73.951736 75.535500,73.988266 75.321617,74.024788 
	C75.264946,73.420372 75.208275,72.815964 75.349144,72.050842 
z"/>
<path fill="#101010" opacity="1.000000" stroke="none" 
	d="
M107.447884,64.612053 
	C107.331993,65.055634 107.051308,65.327904 106.752640,65.578781 
	C106.744545,65.585587 106.542351,65.361320 106.430679,65.244812 
	C106.713997,64.975815 106.997314,64.706818 107.447884,64.612053 
z"/>
<path fill="#101010" opacity="1.000000" stroke="none" 
	d="
M78.397652,80.737198 
	C78.555443,80.862076 78.577866,81.076225 78.600288,81.290375 
	C78.487617,81.135742 78.374954,80.981102 78.397652,80.737198 
z"/>
<path fill="#101010" opacity="1.000000" stroke="none" 
	d="
M75.639389,80.758728 
	C75.624901,80.993858 75.497177,81.121933 75.369461,81.250015 
	C75.421692,81.050568 75.473923,80.851128 75.639389,80.758728 
z"/>
<path fill="#101010" opacity="1.000000" stroke="none" 
	d="
M103.471924,79.457260 
	C103.522087,79.428329 103.421761,79.486198 103.471924,79.457260 
z"/>
<path fill="#0A0A0A" opacity="1.000000" stroke="none" 
	d="
M213.258179,82.405060 
	C213.138321,82.555634 212.933578,82.576523 212.728851,82.597412 
	C212.876999,82.490074 213.025146,82.382721 213.258179,82.405060 
z"/>
<path fill="#0A0A0A" opacity="1.000000" stroke="none" 
	d="
M203.359207,52.256054 
	C203.373611,52.009144 203.507919,51.874058 203.642242,51.738968 
	C203.587860,51.948601 203.533493,52.158241 203.359207,52.256054 
z"/>
<path fill="#6C6C6C" opacity="1.000000" stroke="none" 
	d="
M205.080078,50.578072 
	C205.443924,50.240574 205.700546,50.375362 206.027542,50.830929 
	C206.175598,51.003685 206.133240,51.413467 205.984253,51.812462 
	C205.740997,52.359524 205.646759,52.507587 205.552505,52.655655 
	C205.385193,52.071217 205.217865,51.486778 205.080078,50.578072 
z"/>
<path fill="#0A0A0A" opacity="1.000000" stroke="none" 
	d="
M214.455475,85.530670 
	C214.425873,85.479431 214.485062,85.581917 214.455475,85.530670 
z"/>
<path fill="#6C6C6C" opacity="1.000000" stroke="none" 
	d="
M206.012207,52.016541 
	C206.370972,52.184216 206.552765,52.546810 206.734558,52.909409 
	C206.480286,52.956387 206.226028,53.003365 205.762131,52.852997 
	C205.646759,52.507587 205.740997,52.359524 206.012207,52.016541 
z"/>
<path fill="#0A0A0A" opacity="1.000000" stroke="none" 
	d="
M202.467468,59.448299 
	C202.523117,59.414837 202.411819,59.481762 202.467468,59.448299 
z"/>
<path fill="#0A0A0A" opacity="1.000000" stroke="none" 
	d="
M213.550659,80.466339 
	C213.585007,80.523277 213.516312,80.409409 213.550659,80.466339 
z"/>
<path fill="#F5F5F5" opacity="1.000000" stroke="none" 
	d="
M337.063232,44.074459 
	C336.625732,44.472012 335.953583,44.638016 335.281433,44.804016 
	C335.475494,44.469669 335.669586,44.135338 336.105927,43.596188 
	C336.508301,43.541885 336.668457,43.692398 337.063232,44.074459 
z"/>
<path fill="#121212" opacity="1.000000" stroke="none" 
	d="
M264.982941,67.238960 
	C265.093414,67.406982 265.039703,67.575783 264.985962,67.744576 
	C264.930206,67.576294 264.874481,67.408012 264.982941,67.238960 
z"/>
<path fill="#1B1B1B" opacity="1.000000" stroke="none" 
	d="
M266.467133,82.902405 
	C266.653809,83.197372 266.607300,83.460289 266.204529,83.833221 
	C266.047119,83.978462 266.018158,83.975311 266.098694,83.711235 
	C266.241608,83.273003 266.304016,83.098839 266.366455,82.924683 
	C266.366455,82.924683 266.432770,82.905586 266.467133,82.902405 
z"/>
<path fill="#4D4D4D" opacity="1.000000" stroke="none" 
	d="
M266.023621,82.864578 
	C266.304016,83.098839 266.241608,83.273003 266.084351,83.707916 
	C265.774536,84.020096 265.559570,84.071518 265.015137,84.072609 
	C264.753540,83.834404 264.821350,83.646530 264.938232,83.162292 
	C265.218445,82.845444 265.449585,82.824951 266.023621,82.864578 
z"/>
<path fill="#F5F5F5" opacity="1.000000" stroke="none" 
	d="
M178.310272,44.637352 
	C178.065674,44.619663 177.714935,44.344028 177.633591,43.989098 
	C178.003387,44.066334 178.103760,44.222870 178.310272,44.637352 
z"/>
<path fill="#1F1F1F" opacity="1.000000" stroke="none" 
	d="
M39.583515,83.447121 
	C40.435593,83.551384 41.037853,83.856377 41.640114,84.161362 
	C41.142025,84.536888 40.643940,84.912407 40.145855,85.287933 
	C39.875137,84.741241 39.604416,84.194550 39.583515,83.447121 
z"/>
</svg>