<?xml version="1.0" standalone="no"?>
<!DOCTYPE svg PUBLIC "-//W3C//DTD SVG 20010904//EN"
 "http://www.w3.org/TR/2001/REC-SVG-20010904/DTD/svg10.dtd">
<svg version="1.0" xmlns="http://www.w3.org/2000/svg"
 width="225.000000pt" height="225.000000pt" viewBox="0 0 225.000000 225.000000"
 preserveAspectRatio="xMidYMid meet">

<g transform="translate(0.000000,225.000000) scale(0.100000,-0.100000)"
fill="#000000" stroke="none">
<path d="M547 1840 c-98 -17 -201 -106 -233 -202 -33 -100 -6 -236 63 -309
l24 -26 -31 -13 c-41 -17 -88 -72 -95 -112 -3 -18 -5 -171 -3 -340 3 -293 4
-308 24 -335 33 -44 80 -71 137 -78 29 -3 257 -5 507 -3 447 3 456 3 490 25
48 30 74 77 80 145 l5 57 218 -125 c124 -72 224 -123 232 -120 22 8 23 914 1
922 -8 3 -111 -51 -230 -120 -120 -69 -219 -126 -222 -126 -2 0 -4 23 -4 50 0
28 -7 64 -15 79 -16 33 -65 77 -95 86 -20 6 -19 8 9 41 43 48 59 83 69 148 23
144 -45 273 -178 334 -73 34 -172 35 -247 2 -50 -21 -153 -115 -153 -139 0
-22 -16 -10 -35 25 -51 95 -194 155 -318 134z m168 -74 c93 -43 145 -125 145
-230 0 -99 -40 -166 -141 -237 -15 -10 -20 -21 -16 -32 6 -16 25 -17 189 -15
175 3 183 4 185 23 2 14 -11 29 -45 50 -128 82 -150 261 -46 384 66 78 199
104 299 57 178 -82 197 -336 33 -441 -34 -21 -47 -36 -45 -50 2 -17 11 -21 57
-25 103 -10 130 -45 130 -163 0 -55 4 -76 14 -80 7 -3 110 50 227 119 118 68
217 124 222 124 4 0 7 -175 7 -390 l0 -389 -217 125 c-119 69 -223 123 -232
122 -13 -3 -17 -21 -21 -83 -3 -44 -11 -90 -18 -102 -31 -54 -17 -53 -552 -53
-442 0 -498 2 -519 16 -47 33 -51 63 -51 370 0 361 4 371 130 384 45 4 55 8
58 25 1 14 -10 27 -39 45 -127 78 -158 252 -66 372 71 93 204 125 312 74z"/>
<path d="M507 1103 c-4 -3 -7 -111 -7 -240 l0 -233 385 0 385 0 -2 238 -3 237
-376 3 c-206 1 -378 -1 -382 -5z m713 -233 l0 -190 -335 0 -335 0 0 190 0 190
335 0 335 0 0 -190z"/>
</g>
</svg>
